<mxfile host="app.diagrams.net" modified="2023-11-03T17:55:08.430Z" agent="Mozilla/5.0 (Windows NT 10.0; Win64; x64) AppleWebKit/537.36 (KHTML, like Gecko) Chrome/118.0.0.0 Safari/537.36" etag="KLw3ljr39UtnROSLyoq2" version="22.0.8" type="device">
  <diagram name="1 oldal" id="n7oaGS2OSj4Wgd6zu8Ih">
    <mxGraphModel dx="2261" dy="1999" grid="1" gridSize="10" guides="1" tooltips="1" connect="1" arrows="1" fold="1" page="1" pageScale="1" pageWidth="827" pageHeight="1169" math="0" shadow="0">
      <root>
        <mxCell id="0" />
        <mxCell id="1" parent="0" />
        <mxCell id="aoXguFqlIBxK4_RYtsqY-1" value="" style="rounded=0;whiteSpace=wrap;html=1;" vertex="1" parent="1">
          <mxGeometry y="55" width="270" height="530" as="geometry" />
        </mxCell>
        <mxCell id="aoXguFqlIBxK4_RYtsqY-2" value="&lt;font style=&quot;font-size: 24px;&quot;&gt;Mobil-Design&lt;/font&gt;" style="text;html=1;strokeColor=none;fillColor=none;align=center;verticalAlign=middle;whiteSpace=wrap;rounded=0;" vertex="1" parent="1">
          <mxGeometry x="-10" y="10" width="210" height="30" as="geometry" />
        </mxCell>
        <mxCell id="aoXguFqlIBxK4_RYtsqY-4" value="&lt;font style=&quot;font-size: 18px;&quot;&gt;Header-picture&lt;/font&gt;" style="rounded=1;whiteSpace=wrap;html=1;" vertex="1" parent="1">
          <mxGeometry x="10" y="60" width="250" height="60" as="geometry" />
        </mxCell>
        <mxCell id="aoXguFqlIBxK4_RYtsqY-13" value="Search-bar" style="rounded=0;whiteSpace=wrap;html=1;" vertex="1" parent="1">
          <mxGeometry x="17.5" y="130" width="152.5" height="40" as="geometry" />
        </mxCell>
        <mxCell id="aoXguFqlIBxK4_RYtsqY-14" value="Button" style="labelPosition=center;verticalLabelPosition=middle;align=center;html=1;shape=mxgraph.basic.shaded_button;dx=10;fillColor=#E6E6E6;strokeColor=none;whiteSpace=wrap;" vertex="1" parent="1">
          <mxGeometry x="180" y="180" width="80" height="30" as="geometry" />
        </mxCell>
        <mxCell id="aoXguFqlIBxK4_RYtsqY-15" value="" style="rounded=0;whiteSpace=wrap;html=1;" vertex="1" parent="1">
          <mxGeometry x="320" y="55" width="790" height="535" as="geometry" />
        </mxCell>
        <mxCell id="aoXguFqlIBxK4_RYtsqY-16" value="&lt;font style=&quot;font-size: 24px;&quot;&gt;Computer&lt;/font&gt;" style="text;html=1;strokeColor=none;fillColor=none;align=center;verticalAlign=middle;whiteSpace=wrap;rounded=0;" vertex="1" parent="1">
          <mxGeometry x="580" y="-10" width="340" height="50" as="geometry" />
        </mxCell>
        <mxCell id="aoXguFqlIBxK4_RYtsqY-17" value="&lt;font style=&quot;font-size: 18px;&quot;&gt;Header-picture&lt;/font&gt;" style="rounded=1;whiteSpace=wrap;html=1;" vertex="1" parent="1">
          <mxGeometry x="330" y="60" width="770" height="60" as="geometry" />
        </mxCell>
        <mxCell id="aoXguFqlIBxK4_RYtsqY-18" value="Search-bar" style="rounded=0;whiteSpace=wrap;html=1;" vertex="1" parent="1">
          <mxGeometry x="340" y="150" width="372.5" height="40" as="geometry" />
        </mxCell>
        <mxCell id="aoXguFqlIBxK4_RYtsqY-19" value="Button" style="labelPosition=center;verticalLabelPosition=middle;align=center;html=1;shape=mxgraph.basic.shaded_button;dx=10;fillColor=#E6E6E6;strokeColor=none;whiteSpace=wrap;" vertex="1" parent="1">
          <mxGeometry x="960" y="150" width="80" height="30" as="geometry" />
        </mxCell>
        <mxCell id="aoXguFqlIBxK4_RYtsqY-85" value="" style="childLayout=tableLayout;recursiveResize=0;shadow=0;fillColor=none;" vertex="1" parent="1">
          <mxGeometry x="330" y="230" width="370" height="250" as="geometry" />
        </mxCell>
        <mxCell id="aoXguFqlIBxK4_RYtsqY-86" value="" style="shape=tableRow;horizontal=0;startSize=0;swimlaneHead=0;swimlaneBody=0;top=0;left=0;bottom=0;right=0;dropTarget=0;collapsible=0;recursiveResize=0;expand=0;fontStyle=0;fillColor=none;strokeColor=inherit;" vertex="1" parent="aoXguFqlIBxK4_RYtsqY-85">
          <mxGeometry width="370" height="84" as="geometry" />
        </mxCell>
        <mxCell id="aoXguFqlIBxK4_RYtsqY-87" value="Value 1" style="connectable=0;recursiveResize=0;strokeColor=inherit;fillColor=none;align=center;whiteSpace=wrap;html=1;" vertex="1" parent="aoXguFqlIBxK4_RYtsqY-86">
          <mxGeometry width="124" height="84" as="geometry">
            <mxRectangle width="124" height="84" as="alternateBounds" />
          </mxGeometry>
        </mxCell>
        <mxCell id="aoXguFqlIBxK4_RYtsqY-88" value="Value 2" style="connectable=0;recursiveResize=0;strokeColor=inherit;fillColor=none;align=center;whiteSpace=wrap;html=1;" vertex="1" parent="aoXguFqlIBxK4_RYtsqY-86">
          <mxGeometry x="124" width="122" height="84" as="geometry">
            <mxRectangle width="122" height="84" as="alternateBounds" />
          </mxGeometry>
        </mxCell>
        <mxCell id="aoXguFqlIBxK4_RYtsqY-89" value="Value 3" style="connectable=0;recursiveResize=0;strokeColor=inherit;fillColor=none;align=center;whiteSpace=wrap;html=1;" vertex="1" parent="aoXguFqlIBxK4_RYtsqY-86">
          <mxGeometry x="246" width="124" height="84" as="geometry">
            <mxRectangle width="124" height="84" as="alternateBounds" />
          </mxGeometry>
        </mxCell>
        <mxCell id="aoXguFqlIBxK4_RYtsqY-90" style="shape=tableRow;horizontal=0;startSize=0;swimlaneHead=0;swimlaneBody=0;top=0;left=0;bottom=0;right=0;dropTarget=0;collapsible=0;recursiveResize=0;expand=0;fontStyle=0;fillColor=none;strokeColor=inherit;" vertex="1" parent="aoXguFqlIBxK4_RYtsqY-85">
          <mxGeometry y="84" width="370" height="82" as="geometry" />
        </mxCell>
        <mxCell id="aoXguFqlIBxK4_RYtsqY-91" value="Value 4" style="connectable=0;recursiveResize=0;strokeColor=inherit;fillColor=none;align=center;whiteSpace=wrap;html=1;" vertex="1" parent="aoXguFqlIBxK4_RYtsqY-90">
          <mxGeometry width="124" height="82" as="geometry">
            <mxRectangle width="124" height="82" as="alternateBounds" />
          </mxGeometry>
        </mxCell>
        <mxCell id="aoXguFqlIBxK4_RYtsqY-92" value="Value 5" style="connectable=0;recursiveResize=0;strokeColor=inherit;fillColor=none;align=center;whiteSpace=wrap;html=1;" vertex="1" parent="aoXguFqlIBxK4_RYtsqY-90">
          <mxGeometry x="124" width="122" height="82" as="geometry">
            <mxRectangle width="122" height="82" as="alternateBounds" />
          </mxGeometry>
        </mxCell>
        <mxCell id="aoXguFqlIBxK4_RYtsqY-93" value="Value 6" style="connectable=0;recursiveResize=0;strokeColor=inherit;fillColor=none;align=center;whiteSpace=wrap;html=1;" vertex="1" parent="aoXguFqlIBxK4_RYtsqY-90">
          <mxGeometry x="246" width="124" height="82" as="geometry">
            <mxRectangle width="124" height="82" as="alternateBounds" />
          </mxGeometry>
        </mxCell>
        <mxCell id="aoXguFqlIBxK4_RYtsqY-94" style="shape=tableRow;horizontal=0;startSize=0;swimlaneHead=0;swimlaneBody=0;top=0;left=0;bottom=0;right=0;dropTarget=0;collapsible=0;recursiveResize=0;expand=0;fontStyle=0;fillColor=none;strokeColor=inherit;" vertex="1" parent="aoXguFqlIBxK4_RYtsqY-85">
          <mxGeometry y="166" width="370" height="84" as="geometry" />
        </mxCell>
        <mxCell id="aoXguFqlIBxK4_RYtsqY-95" value="Value 7" style="connectable=0;recursiveResize=0;strokeColor=inherit;fillColor=none;align=center;whiteSpace=wrap;html=1;" vertex="1" parent="aoXguFqlIBxK4_RYtsqY-94">
          <mxGeometry width="124" height="84" as="geometry">
            <mxRectangle width="124" height="84" as="alternateBounds" />
          </mxGeometry>
        </mxCell>
        <mxCell id="aoXguFqlIBxK4_RYtsqY-96" value="Value 8" style="connectable=0;recursiveResize=0;strokeColor=inherit;fillColor=none;align=center;whiteSpace=wrap;html=1;" vertex="1" parent="aoXguFqlIBxK4_RYtsqY-94">
          <mxGeometry x="124" width="122" height="84" as="geometry">
            <mxRectangle width="122" height="84" as="alternateBounds" />
          </mxGeometry>
        </mxCell>
        <mxCell id="aoXguFqlIBxK4_RYtsqY-97" value="Value 9" style="connectable=0;recursiveResize=0;strokeColor=inherit;fillColor=none;align=center;whiteSpace=wrap;html=1;" vertex="1" parent="aoXguFqlIBxK4_RYtsqY-94">
          <mxGeometry x="246" width="124" height="84" as="geometry">
            <mxRectangle width="124" height="84" as="alternateBounds" />
          </mxGeometry>
        </mxCell>
        <mxCell id="aoXguFqlIBxK4_RYtsqY-111" value="" style="childLayout=tableLayout;recursiveResize=0;shadow=0;fillColor=none;" vertex="1" parent="1">
          <mxGeometry x="700" y="230" width="370" height="250" as="geometry" />
        </mxCell>
        <mxCell id="aoXguFqlIBxK4_RYtsqY-112" value="" style="shape=tableRow;horizontal=0;startSize=0;swimlaneHead=0;swimlaneBody=0;top=0;left=0;bottom=0;right=0;dropTarget=0;collapsible=0;recursiveResize=0;expand=0;fontStyle=0;fillColor=none;strokeColor=inherit;" vertex="1" parent="aoXguFqlIBxK4_RYtsqY-111">
          <mxGeometry width="370" height="84" as="geometry" />
        </mxCell>
        <mxCell id="aoXguFqlIBxK4_RYtsqY-113" value="Value 1" style="connectable=0;recursiveResize=0;strokeColor=inherit;fillColor=none;align=center;whiteSpace=wrap;html=1;" vertex="1" parent="aoXguFqlIBxK4_RYtsqY-112">
          <mxGeometry width="124" height="84" as="geometry">
            <mxRectangle width="124" height="84" as="alternateBounds" />
          </mxGeometry>
        </mxCell>
        <mxCell id="aoXguFqlIBxK4_RYtsqY-114" value="Value 2" style="connectable=0;recursiveResize=0;strokeColor=inherit;fillColor=none;align=center;whiteSpace=wrap;html=1;" vertex="1" parent="aoXguFqlIBxK4_RYtsqY-112">
          <mxGeometry x="124" width="142" height="84" as="geometry">
            <mxRectangle width="142" height="84" as="alternateBounds" />
          </mxGeometry>
        </mxCell>
        <mxCell id="aoXguFqlIBxK4_RYtsqY-115" value="Value 3" style="connectable=0;recursiveResize=0;strokeColor=inherit;fillColor=none;align=center;whiteSpace=wrap;html=1;" vertex="1" parent="aoXguFqlIBxK4_RYtsqY-112">
          <mxGeometry x="266" width="104" height="84" as="geometry">
            <mxRectangle width="104" height="84" as="alternateBounds" />
          </mxGeometry>
        </mxCell>
        <mxCell id="aoXguFqlIBxK4_RYtsqY-116" style="shape=tableRow;horizontal=0;startSize=0;swimlaneHead=0;swimlaneBody=0;top=0;left=0;bottom=0;right=0;dropTarget=0;collapsible=0;recursiveResize=0;expand=0;fontStyle=0;fillColor=none;strokeColor=inherit;" vertex="1" parent="aoXguFqlIBxK4_RYtsqY-111">
          <mxGeometry y="84" width="370" height="82" as="geometry" />
        </mxCell>
        <mxCell id="aoXguFqlIBxK4_RYtsqY-117" value="Value 4" style="connectable=0;recursiveResize=0;strokeColor=inherit;fillColor=none;align=center;whiteSpace=wrap;html=1;" vertex="1" parent="aoXguFqlIBxK4_RYtsqY-116">
          <mxGeometry width="124" height="82" as="geometry">
            <mxRectangle width="124" height="82" as="alternateBounds" />
          </mxGeometry>
        </mxCell>
        <mxCell id="aoXguFqlIBxK4_RYtsqY-118" value="Value 5" style="connectable=0;recursiveResize=0;strokeColor=inherit;fillColor=none;align=center;whiteSpace=wrap;html=1;" vertex="1" parent="aoXguFqlIBxK4_RYtsqY-116">
          <mxGeometry x="124" width="142" height="82" as="geometry">
            <mxRectangle width="142" height="82" as="alternateBounds" />
          </mxGeometry>
        </mxCell>
        <mxCell id="aoXguFqlIBxK4_RYtsqY-119" value="Value 6" style="connectable=0;recursiveResize=0;strokeColor=inherit;fillColor=none;align=center;whiteSpace=wrap;html=1;" vertex="1" parent="aoXguFqlIBxK4_RYtsqY-116">
          <mxGeometry x="266" width="104" height="82" as="geometry">
            <mxRectangle width="104" height="82" as="alternateBounds" />
          </mxGeometry>
        </mxCell>
        <mxCell id="aoXguFqlIBxK4_RYtsqY-120" style="shape=tableRow;horizontal=0;startSize=0;swimlaneHead=0;swimlaneBody=0;top=0;left=0;bottom=0;right=0;dropTarget=0;collapsible=0;recursiveResize=0;expand=0;fontStyle=0;fillColor=none;strokeColor=inherit;" vertex="1" parent="aoXguFqlIBxK4_RYtsqY-111">
          <mxGeometry y="166" width="370" height="84" as="geometry" />
        </mxCell>
        <mxCell id="aoXguFqlIBxK4_RYtsqY-121" value="Value 7" style="connectable=0;recursiveResize=0;strokeColor=inherit;fillColor=none;align=center;whiteSpace=wrap;html=1;" vertex="1" parent="aoXguFqlIBxK4_RYtsqY-120">
          <mxGeometry width="124" height="84" as="geometry">
            <mxRectangle width="124" height="84" as="alternateBounds" />
          </mxGeometry>
        </mxCell>
        <mxCell id="aoXguFqlIBxK4_RYtsqY-122" value="Value 8" style="connectable=0;recursiveResize=0;strokeColor=inherit;fillColor=none;align=center;whiteSpace=wrap;html=1;" vertex="1" parent="aoXguFqlIBxK4_RYtsqY-120">
          <mxGeometry x="124" width="142" height="84" as="geometry">
            <mxRectangle width="142" height="84" as="alternateBounds" />
          </mxGeometry>
        </mxCell>
        <mxCell id="aoXguFqlIBxK4_RYtsqY-123" value="Value 9" style="connectable=0;recursiveResize=0;strokeColor=inherit;fillColor=none;align=center;whiteSpace=wrap;html=1;" vertex="1" parent="aoXguFqlIBxK4_RYtsqY-120">
          <mxGeometry x="266" width="104" height="84" as="geometry">
            <mxRectangle width="104" height="84" as="alternateBounds" />
          </mxGeometry>
        </mxCell>
        <mxCell id="aoXguFqlIBxK4_RYtsqY-124" value="&lt;font style=&quot;font-size: 18px;&quot;&gt;Search by:&lt;/font&gt;" style="rounded=0;whiteSpace=wrap;html=1;" vertex="1" parent="1">
          <mxGeometry x="740" y="150" width="90" height="40" as="geometry" />
        </mxCell>
        <mxCell id="aoXguFqlIBxK4_RYtsqY-125" value="Search by:" style="rounded=0;whiteSpace=wrap;html=1;" vertex="1" parent="1">
          <mxGeometry x="170" y="135" width="90" height="30" as="geometry" />
        </mxCell>
        <mxCell id="aoXguFqlIBxK4_RYtsqY-126" value="" style="rounded=0;whiteSpace=wrap;html=1;" vertex="1" parent="1">
          <mxGeometry x="33.75" y="250" width="196.25" height="60" as="geometry" />
        </mxCell>
        <mxCell id="aoXguFqlIBxK4_RYtsqY-127" value="" style="rounded=0;whiteSpace=wrap;html=1;" vertex="1" parent="1">
          <mxGeometry x="33.75" y="325" width="196.25" height="60" as="geometry" />
        </mxCell>
        <mxCell id="aoXguFqlIBxK4_RYtsqY-128" value="" style="rounded=0;whiteSpace=wrap;html=1;" vertex="1" parent="1">
          <mxGeometry x="33.75" y="400" width="196.25" height="60" as="geometry" />
        </mxCell>
        <mxCell id="aoXguFqlIBxK4_RYtsqY-129" value="" style="rounded=0;whiteSpace=wrap;html=1;" vertex="1" parent="1">
          <mxGeometry x="33.75" y="480" width="196.25" height="60" as="geometry" />
        </mxCell>
      </root>
    </mxGraphModel>
  </diagram>
</mxfile>
